REM DIRINDEX 1\4,1\2\5,1\2\6,1\3\7,1\3\8
REM DIRNAME cjc124,folder01,folder02,folder03,folder04,folder05,folder06,folder07
TITLE ""
FILE "051_Day26_Check2_Phrases.mp3" MP3
  TRACK 01 AUDIO
    TITLE "0:"
    INDEX 01 00:00:00
  TRACK 02 AUDIO
    TITLE "4:cjc124_1653"
    INDEX 01 00:00:31
  TRACK 03 AUDIO
    TITLE "0:"
    INDEX 01 00:01:46
  TRACK 04 AUDIO
    TITLE "5:cjc124_1654"
    INDEX 01 00:02:02
  TRACK 05 AUDIO
    TITLE "0:"
    INDEX 01 00:03:70
  TRACK 06 AUDIO
    TITLE "6:cjc124_1655"
    INDEX 01 00:04:13
  TRACK 07 AUDIO
    TITLE "0:"
    INDEX 01 00:05:38
  TRACK 08 AUDIO
    TITLE "5:cjc124_1656"
    INDEX 01 00:06:00
  TRACK 09 AUDIO
    TITLE "0:"
    INDEX 01 00:08:07
  TRACK 10 AUDIO
    TITLE "6:cjc124_1657"
    INDEX 01 00:08:23
  TRACK 11 AUDIO
    TITLE "0:"
    INDEX 01 00:09:57
  TRACK 12 AUDIO
    TITLE "5:cjc124_1658"
    INDEX 01 00:10:19
  TRACK 13 AUDIO
    TITLE "0:"
    INDEX 01 00:11:74
  TRACK 14 AUDIO
    TITLE "6:cjc124_1659"
    INDEX 01 00:12:14
  TRACK 15 AUDIO
    TITLE "0:"
    INDEX 01 00:13:57
  TRACK 16 AUDIO
    TITLE "5:cjc124_1660"
    INDEX 01 00:14:19
  TRACK 17 AUDIO
    TITLE "0:"
    INDEX 01 00:16:24
  TRACK 18 AUDIO
    TITLE "6:cjc124_1661"
    INDEX 01 00:16:49
  TRACK 19 AUDIO
    TITLE "0:"
    INDEX 01 00:19:22
  TRACK 20 AUDIO
    TITLE "5:cjc124_1662"
    INDEX 01 00:19:60
  TRACK 21 AUDIO
    TITLE "0:"
    INDEX 01 00:21:53
  TRACK 22 AUDIO
    TITLE "6:cjc124_1663"
    INDEX 01 00:21:66
  TRACK 23 AUDIO
    TITLE "0:"
    INDEX 01 00:23:22
  TRACK 24 AUDIO
    TITLE "5:cjc124_1664"
    INDEX 01 00:23:59
  TRACK 25 AUDIO
    TITLE "0:"
    INDEX 01 00:25:33
  TRACK 26 AUDIO
    TITLE "6:cjc124_1665"
    INDEX 01 00:25:48
  TRACK 27 AUDIO
    TITLE "0:"
    INDEX 01 00:27:06
  TRACK 28 AUDIO
    TITLE "5:cjc124_1666"
    INDEX 01 00:27:47
  TRACK 29 AUDIO
    TITLE "0:"
    INDEX 01 00:29:17
  TRACK 30 AUDIO
    TITLE "6:cjc124_1667"
    INDEX 01 00:29:42
  TRACK 31 AUDIO
    TITLE "0:"
    INDEX 01 00:30:63
  TRACK 32 AUDIO
    TITLE "5:cjc124_1668"
    INDEX 01 00:31:26
  TRACK 33 AUDIO
    TITLE "0:"
    INDEX 01 00:34:02
  TRACK 34 AUDIO
    TITLE "6:cjc124_1669"
    INDEX 01 00:34:18
  TRACK 35 AUDIO
    TITLE "0:"
    INDEX 01 00:36:58
  TRACK 36 AUDIO
    TITLE "5:cjc124_1670"
    INDEX 01 00:37:22
  TRACK 37 AUDIO
    TITLE "0:"
    INDEX 01 00:39:27
  TRACK 38 AUDIO
    TITLE "6:cjc124_1671"
    INDEX 01 00:39:43
  TRACK 39 AUDIO
    TITLE "0:"
    INDEX 01 00:41:04
  TRACK 40 AUDIO
    TITLE "5:cjc124_1672"
    INDEX 01 00:41:40
  TRACK 41 AUDIO
    TITLE "0:"
    INDEX 01 00:43:23
  TRACK 42 AUDIO
    TITLE "6:cjc124_1673"
    INDEX 01 00:43:40
  TRACK 43 AUDIO
    TITLE "0:"
    INDEX 01 00:45:12
  TRACK 44 AUDIO
    TITLE "5:cjc124_1674"
    INDEX 01 00:45:49
  TRACK 45 AUDIO
    TITLE "0:"
    INDEX 01 00:47:56
  TRACK 46 AUDIO
    TITLE "6:cjc124_1675"
    INDEX 01 00:47:72
  TRACK 47 AUDIO
    TITLE "0:"
    INDEX 01 00:49:29
  TRACK 48 AUDIO
    TITLE "5:cjc124_1676"
    INDEX 01 00:49:70
  TRACK 49 AUDIO
    TITLE "0:"
    INDEX 01 00:52:32
  TRACK 50 AUDIO
    TITLE "6:cjc124_1677"
    INDEX 01 00:52:51
  TRACK 51 AUDIO
    TITLE "0:"
    INDEX 01 00:54:58
  TRACK 52 AUDIO
    TITLE "5:cjc124_1678"
    INDEX 01 00:55:22
  TRACK 53 AUDIO
    TITLE "0:"
    INDEX 01 00:57:39
  TRACK 54 AUDIO
    TITLE "6:cjc124_1679"
    INDEX 01 00:57:58
  TRACK 55 AUDIO
    TITLE "0:"
    INDEX 01 00:59:49
  TRACK 56 AUDIO
    TITLE "5:cjc124_1680"
    INDEX 01 01:00:12
  TRACK 57 AUDIO
    TITLE "0:"
    INDEX 01 01:02:01
  TRACK 58 AUDIO
    TITLE "6:cjc124_1681"
    INDEX 01 01:02:18
  TRACK 59 AUDIO
    TITLE "0:"
    INDEX 01 01:03:47
  TRACK 60 AUDIO
    TITLE "5:cjc124_1682"
    INDEX 01 01:04:09
  TRACK 61 AUDIO
    TITLE "0:"
    INDEX 01 01:06:10
  TRACK 62 AUDIO
    TITLE "6:cjc124_1683"
    INDEX 01 01:06:38
  TRACK 63 AUDIO
    TITLE "0:"
    INDEX 01 01:08:50
  TRACK 64 AUDIO
    TITLE "5:cjc124_1684"
    INDEX 01 01:09:12
  TRACK 65 AUDIO
    TITLE "0:"
    INDEX 01 01:11:02
  TRACK 66 AUDIO
    TITLE "6:cjc124_1685"
    INDEX 01 01:11:15
  TRACK 67 AUDIO
    TITLE "0:"
    INDEX 01 01:12:58
